<svg version="1.1" xmlns="http://www.w3.org/2000/svg" x="0" y="0" width="16" height="16" viewBox="0 0 140 140" xml:space="preserve"><path d="M0 0v140h140V0H0zm11.375 72.625L20.125 63c3.5 4.375 7 6.125 11.375 6.125 5.25 0 8.75-3.5 8.75-10.5V17.5h14v41.125c0 7.875-1.75 13.125-6.125 16.625-3.5 4.375-9.625 7-16.625 7-9.625 0-15.75-4.375-20.125-9.625zM78.75 122.5H17.5v-8.75h61.25v8.75zm20.125-42H68.25v-63H98c7 0 13.125 1.75 16.625 5.25 2.625 2.625 4.375 6.125 4.375 10.5 0 7-3.5 11.375-8.75 14 7.875 3.5 12.25 7.875 12.25 15.75 0 11.375-9.625 17.5-23.625 17.5z"/><path d="M105 35.875c0-4.375-3.5-6.125-8.75-6.125h-14v13.125h13.125c6.125 0 9.625-1.75 9.625-7zM98 55.125H82.25v14h16.625c6.125 0 9.625-1.75 9.625-7 0-4.375-2.625-7-10.5-7z"/></svg>
